<svg width="42" height="38" viewBox="0 0 42 38" fill="none" xmlns="http://www.w3.org/2000/svg">
<path d="M30.8043 22.2928C30.3824 22.1074 27.6395 20.9951 27.2175 20.8097C26.7956 20.6243 26.3736 20.6243 25.9516 20.9951C25.5296 21.3659 24.6857 22.4782 24.2637 22.8489C24.0527 23.2197 23.6307 23.2197 23.2087 23.0343C21.7318 22.4782 20.2549 21.7366 18.989 20.8097C17.934 19.8828 16.8791 18.7704 16.0351 17.6581C15.8241 17.2873 16.0351 16.9166 16.2461 16.7312C16.4571 16.5458 16.6681 16.175 17.0901 15.9896C17.3011 15.8042 17.5121 15.4335 17.5121 15.2481C17.723 15.0627 17.723 14.6919 17.5121 14.5065C17.3011 14.3211 16.2461 12.0965 15.8241 11.1696C15.6132 9.87186 15.1912 9.87186 14.7692 9.87186H13.7143C13.2923 9.87186 12.6593 10.2426 12.4483 10.428C11.1824 11.5403 10.5494 12.838 10.5494 14.3211C10.7604 15.9896 11.3934 17.6581 12.6593 19.1412C14.9802 22.1074 17.934 24.5174 21.5208 26.0005C22.5758 26.3713 23.4197 26.7421 24.4747 26.9275C25.5296 27.2982 26.5846 27.2982 27.8505 27.1128C29.3274 26.9275 30.5934 26.0005 31.4373 24.8882C31.8593 24.1467 31.8593 23.4051 31.6483 22.6636L30.8043 22.2928ZM36.0791 5.42257C27.8505 -1.80752 14.5582 -1.80752 6.32966 5.42257C-0.421978 11.355 -1.68791 20.4389 2.95384 27.669L0 37.1237L11.1824 34.5283C14.3472 36.0114 17.723 36.753 21.0989 36.753C32.7032 36.753 41.9867 28.5959 41.9867 18.3997C42.1977 13.5796 39.8769 8.94492 36.0791 5.42257ZM30.3824 31.3767C27.6395 32.8598 24.4747 33.7868 21.0989 33.7868C17.934 33.7868 14.9802 33.0452 12.2373 31.7475L11.6044 31.3767L5.06373 32.8598L6.75164 27.2982L6.32966 26.7421C1.26593 19.3266 3.79779 10.0572 12.0264 5.42257C20.2549 0.787895 30.8043 3.19793 35.8681 10.2426C40.9318 17.4727 38.6109 26.9275 30.3824 31.3767Z" fill="black"/>
</svg>
